<svg xmlns="http://www.w3.org/2000/svg" xmlns:xlink="http://www.w3.org/1999/xlink" width="40" zoomAndPan="magnify" viewBox="0 0 30 30.000001" height="40" preserveAspectRatio="xMidYMid meet" version="1.0"><defs><clipPath id="e6bb3c2261"><path d="M 0.484375 13 L 29.515625 13 L 29.515625 16 L 0.484375 16 Z M 0.484375 13 " clip-rule="nonzero"/></clipPath><clipPath id="ac1a3a995c"><path d="M 0.484375 4.789062 L 29.515625 4.789062 L 29.515625 8 L 0.484375 8 Z M 0.484375 4.789062 " clip-rule="nonzero"/></clipPath><clipPath id="d51eccd80e"><path d="M 0.488281 21.800781 L 29.511719 21.800781 L 29.511719 24.386719 L 0.488281 24.386719 Z M 0.488281 21.800781 " clip-rule="nonzero"/></clipPath></defs><g clip-path="url(#e6bb3c2261)"><path fill="#000000" d="M 28.242188 15.867188 L 1.757812 15.867188 C 1.058594 15.867188 0.488281 15.296875 0.488281 14.589844 C 0.488281 13.882812 1.058594 13.3125 1.757812 13.3125 L 28.242188 13.3125 C 28.941406 13.3125 29.511719 13.882812 29.511719 14.589844 C 29.511719 15.296875 28.941406 15.867188 28.242188 15.867188 " fill-opacity="1" fill-rule="nonzero"/></g><g clip-path="url(#ac1a3a995c)"><path fill="#000000" d="M 28.242188 7.347656 L 1.757812 7.347656 C 1.058594 7.347656 0.488281 6.773438 0.488281 6.070312 C 0.488281 5.363281 1.058594 4.789062 1.757812 4.789062 L 28.242188 4.789062 C 28.941406 4.789062 29.511719 5.363281 29.511719 6.070312 C 29.511719 6.773438 28.941406 7.347656 28.242188 7.347656 " fill-opacity="1" fill-rule="nonzero"/></g><g clip-path="url(#d51eccd80e)"><path fill="#000000" d="M 28.242188 24.386719 L 1.757812 24.386719 C 1.058594 24.386719 0.488281 23.816406 0.488281 23.109375 C 0.488281 22.402344 1.058594 21.832031 1.757812 21.832031 L 28.242188 21.832031 C 28.941406 21.832031 29.511719 22.402344 29.511719 23.109375 C 29.511719 23.816406 28.941406 24.386719 28.242188 24.386719 " fill-opacity="1" fill-rule="nonzero"/></g><path stroke-linecap="butt" transform="matrix(0.725806, 0, 0, 0.725806, 10.354838, 14.516131)" fill="none" stroke-linejoin="miter" d="M 0.000868836 0.499824 L 12.799133 0.499824 " stroke="#000000" stroke-width="1" stroke-opacity="1" stroke-miterlimit="4"/></svg>