<svg xmlns="http://www.w3.org/2000/svg" xmlns:xlink="http://www.w3.org/1999/xlink" width="80" zoomAndPan="magnify" viewBox="0 0 60 48" height="64" preserveAspectRatio="xMidYMid meet" version="1.0"><defs><clipPath id="6a56862cc5"><path d="M 0.613281 0 L 59.386719 0 L 59.386719 47.019531 L 0.613281 47.019531 Z M 0.613281 0 " clip-rule="nonzero"/></clipPath><clipPath id="58218d409a"><path d="M 3.878906 0 L 56.039062 0 L 56.039062 47.019531 L 3.878906 47.019531 Z M 3.878906 0 " clip-rule="nonzero"/></clipPath></defs><g clip-path="url(#6a56862cc5)"><path fill="#ffffff" d="M 0.613281 0 L 59.386719 0 L 59.386719 47.019531 L 0.613281 47.019531 Z M 0.613281 0 " fill-opacity="1" fill-rule="nonzero"/><path fill="#ffffff" d="M 0.613281 0 L 59.386719 0 L 59.386719 47.019531 L 0.613281 47.019531 Z M 0.613281 0 " fill-opacity="1" fill-rule="nonzero"/></g><g clip-path="url(#58218d409a)"><path fill="#004aad" d="M 23.441406 47.019531 C 15.214844 47.019531 14.316406 36.582031 13.660156 28.957031 C 13.511719 27.265625 12.503906 26.121094 11.65625 26.121094 L 6.433594 26.121094 C 6.085938 26.121094 5.753906 26.054688 5.433594 25.921875 C 5.113281 25.789062 4.832031 25.601562 4.585938 25.355469 C 4.339844 25.113281 4.152344 24.828125 4.019531 24.511719 C 3.886719 24.191406 3.820312 23.855469 3.820312 23.511719 C 3.820312 23.164062 3.886719 22.832031 4.019531 22.511719 C 4.152344 22.191406 4.339844 21.90625 4.585938 21.664062 C 4.832031 21.417969 5.113281 21.230469 5.433594 21.097656 C 5.753906 20.964844 6.085938 20.898438 6.433594 20.898438 L 11.65625 20.898438 C 15.386719 20.898438 18.484375 24.164062 18.863281 28.507812 C 19.679688 38.070312 20.96875 41.796875 23.441406 41.796875 C 24.097656 41.796875 27.359375 40.914062 27.359375 23.511719 C 27.359375 11.886719 28.449219 0 36.503906 0 C 44.730469 0 45.632812 10.441406 46.289062 18.0625 C 46.433594 19.757812 47.441406 20.898438 48.285156 20.898438 L 53.507812 20.898438 C 53.855469 20.898438 54.1875 20.964844 54.507812 21.097656 C 54.828125 21.230469 55.109375 21.417969 55.355469 21.664062 C 55.601562 21.90625 55.789062 22.191406 55.921875 22.511719 C 56.054688 22.832031 56.121094 23.164062 56.121094 23.511719 C 56.121094 23.855469 56.054688 24.191406 55.921875 24.511719 C 55.789062 24.828125 55.601562 25.113281 55.355469 25.355469 C 55.109375 25.601562 54.828125 25.789062 54.507812 25.921875 C 54.1875 26.054688 53.855469 26.121094 53.507812 26.121094 L 48.285156 26.121094 C 44.554688 26.121094 41.457031 22.855469 41.082031 18.511719 C 40.261719 8.949219 38.980469 5.226562 36.503906 5.226562 C 35.851562 5.226562 32.585938 6.105469 32.585938 23.511719 C 32.585938 35.132812 31.5 47.019531 23.441406 47.019531 Z M 23.441406 47.019531 " fill-opacity="1" fill-rule="nonzero"/></g></svg>