<svg xmlns="http://www.w3.org/2000/svg" xmlns:xlink="http://www.w3.org/1999/xlink" width="320" zoomAndPan="magnify" viewBox="0 0 240 149.999998" height="200" preserveAspectRatio="xMidYMid meet" version="1.0"><defs><g/><clipPath id="3beaee57d8"><path d="M 15 27.664062 L 95.636719 27.664062 L 95.636719 65.257812 L 15 65.257812 Z M 15 27.664062 " clip-rule="nonzero"/></clipPath><clipPath id="5114ffdc9f"><path d="M 79.679688 27.664062 L 160.3125 27.664062 L 160.3125 65.257812 L 79.679688 65.257812 Z M 79.679688 27.664062 " clip-rule="nonzero"/></clipPath><clipPath id="0b85d54a25"><path d="M 144.359375 27.664062 L 224.992188 27.664062 L 224.992188 65.257812 L 144.359375 65.257812 Z M 144.359375 27.664062 " clip-rule="nonzero"/></clipPath></defs><g clip-path="url(#3beaee57d8)"><path fill="#d2c2b0" d="M 15 4.90625 L 95.636719 4.90625 L 95.636719 85.542969 L 15 85.542969 Z M 15 4.90625 " fill-opacity="1" fill-rule="nonzero"/></g><g clip-path="url(#5114ffdc9f)"><path fill="#d2c2b0" d="M 79.679688 4.90625 L 160.3125 4.90625 L 160.3125 85.542969 L 79.679688 85.542969 Z M 79.679688 4.90625 " fill-opacity="1" fill-rule="nonzero"/></g><g clip-path="url(#0b85d54a25)"><path fill="#d2c2b0" d="M 144.359375 4.90625 L 224.992188 4.90625 L 224.992188 85.542969 L 144.359375 85.542969 Z M 144.359375 4.90625 " fill-opacity="1" fill-rule="nonzero"/></g><g fill="#ffffff" fill-opacity="1"><g transform="translate(22.933514, 57.565316)"><g><path d="M 35.796875 -16.839844 C 35.308594 -19.808594 32.90625 -22.25 28.675781 -22.25 C 26.726562 -22.25 25.300781 -21.84375 24.039062 -20.988281 L 21.84375 -18.0625 C 20.949219 -20.460938 18.710938 -22.25 15.089844 -22.25 C 13.097656 -22.25 11.714844 -21.84375 10.414062 -20.988281 L 8.785156 -18.304688 L 8.785156 -21.679688 L 2.398438 -21.679688 L 2.398438 0 L 8.785156 0 L 8.785156 -11.269531 C 8.785156 -15.703125 9.964844 -17.855469 12.40625 -17.855469 C 14.480469 -17.855469 15.578125 -16.636719 15.863281 -14.480469 C 15.984375 -13.382812 16.027344 -12.203125 16.027344 -11.1875 L 16.027344 0 L 22.371094 0 L 22.371094 -11.269531 C 22.371094 -15.703125 23.59375 -17.855469 26.035156 -17.855469 C 28.066406 -17.855469 29.207031 -16.636719 29.449219 -14.480469 C 29.574219 -13.382812 29.613281 -12.203125 29.613281 -11.1875 L 29.613281 0 L 36 0 L 36 -12.8125 C 36 -14.5625 35.957031 -15.742188 35.796875 -16.839844 Z M 35.796875 -16.839844 "/></g></g></g><g fill="#ffffff" fill-opacity="1"><g transform="translate(59.05284, 57.565316)"><g><path d="M 12.488281 -22.25 C 5.289062 -22.25 1.058594 -17.613281 1.058594 -10.859375 C 1.058594 -4.109375 5.289062 0.570312 12.488281 0.570312 C 19.648438 0.570312 23.917969 -4.109375 23.917969 -10.859375 C 23.917969 -17.613281 19.648438 -22.25 12.488281 -22.25 Z M 12.488281 -3.824219 C 9.4375 -3.824219 7.605469 -6.34375 7.605469 -10.859375 C 7.605469 -15.375 9.4375 -17.855469 12.488281 -17.855469 C 15.5 -17.855469 17.328125 -15.375 17.328125 -10.859375 C 17.328125 -6.34375 15.5 -3.824219 12.488281 -3.824219 Z M 12.488281 -3.824219 "/></g></g></g><g fill="#ffffff" fill-opacity="1"><g transform="translate(81.952716, 57.565316)"><g><path d="M 23.308594 -16.269531 C 22.820312 -20.054688 20.175781 -22.25 15.621094 -22.25 C 13.585938 -22.25 12.039062 -21.84375 10.574219 -20.867188 L 8.785156 -18.265625 L 8.785156 -21.679688 L 2.398438 -21.679688 L 2.398438 0 L 8.785156 0 L 8.785156 -10.046875 C 8.785156 -15.578125 10.65625 -17.855469 13.179688 -17.855469 C 15.660156 -17.855469 16.882812 -16.472656 17.042969 -14.277344 C 17.125 -13.179688 17.125 -12.082031 17.125 -11.269531 L 17.125 0 L 23.511719 0 L 23.511719 -12.242188 C 23.511719 -13.992188 23.472656 -15.171875 23.308594 -16.269531 Z M 23.308594 -16.269531 "/></g></g></g><g fill="#ffffff" fill-opacity="1"><g transform="translate(105.584745, 57.565316)"><g><path d="M 10.046875 -17.449219 L 14.644531 -17.449219 L 14.644531 -21.519531 L 10.046875 -21.519531 L 10.046875 -26.96875 L 3.660156 -26.96875 L 3.660156 -21.519531 L 0.367188 -21.519531 L 0.367188 -17.449219 L 3.660156 -17.449219 L 3.660156 -7.484375 C 3.660156 -6.265625 3.660156 -5.289062 3.742188 -4.191406 C 3.988281 -1.015625 5.53125 0.527344 10.292969 0.527344 C 11.675781 0.527344 12.933594 0.40625 14.238281 0.203125 L 14.238281 -3.863281 C 10.984375 -3.660156 10.25 -4.148438 10.089844 -6.304688 C 10.046875 -6.875 10.046875 -7.605469 10.046875 -8.339844 Z M 10.046875 -17.449219 "/></g></g></g><g fill="#ffffff" fill-opacity="1"><g transform="translate(118.925938, 57.565316)"><g><path d="M 22.777344 -11.226562 C 22.777344 -17.003906 19.199219 -22.25 12.285156 -22.25 C 5.410156 -22.25 1.058594 -17.289062 1.058594 -10.78125 C 1.058594 -3.132812 5.816406 0.570312 11.878906 0.570312 C 17.164062 0.570312 21.234375 -2.074219 22.414062 -7.078125 L 16.109375 -7.078125 C 15.742188 -5.042969 14.238281 -3.824219 12 -3.824219 C 9.601562 -3.824219 7.808594 -5.042969 7.445312 -9.191406 L 22.65625 -9.191406 C 22.738281 -9.964844 22.777344 -10.65625 22.777344 -11.226562 Z M 12 -17.855469 C 14.359375 -17.855469 15.78125 -16.269531 16.148438 -13.21875 L 7.605469 -13.21875 C 8.136719 -16.433594 9.722656 -17.855469 12 -17.855469 Z M 12 -17.855469 "/></g></g></g><g fill="#ffffff" fill-opacity="1"><g transform="translate(140.808931, 57.565316)"><g><path d="M 14.359375 -22.25 C 13.097656 -22.25 11.511719 -21.679688 10.414062 -20.542969 L 8.785156 -17.53125 L 8.785156 -21.679688 L 2.398438 -21.679688 L 2.398438 0 L 8.785156 0 L 8.785156 -9.070312 C 8.785156 -15.214844 10.941406 -17.246094 15.984375 -16.921875 L 15.984375 -22.085938 C 15.5 -22.167969 15.050781 -22.25 14.359375 -22.25 Z M 14.359375 -22.25 "/></g></g></g><g fill="#ffffff" fill-opacity="1"><g transform="translate(154.963626, 57.565316)"><g><path d="M 14.359375 -22.25 C 13.097656 -22.25 11.511719 -21.679688 10.414062 -20.542969 L 8.785156 -17.53125 L 8.785156 -21.679688 L 2.398438 -21.679688 L 2.398438 0 L 8.785156 0 L 8.785156 -9.070312 C 8.785156 -15.214844 10.941406 -17.246094 15.984375 -16.921875 L 15.984375 -22.085938 C 15.5 -22.167969 15.050781 -22.25 14.359375 -22.25 Z M 14.359375 -22.25 "/></g></g></g><g fill="#ffffff" fill-opacity="1"><g transform="translate(169.118328, 57.565316)"><g><path d="M 22.777344 -11.226562 C 22.777344 -17.003906 19.199219 -22.25 12.285156 -22.25 C 5.410156 -22.25 1.058594 -17.289062 1.058594 -10.78125 C 1.058594 -3.132812 5.816406 0.570312 11.878906 0.570312 C 17.164062 0.570312 21.234375 -2.074219 22.414062 -7.078125 L 16.109375 -7.078125 C 15.742188 -5.042969 14.238281 -3.824219 12 -3.824219 C 9.601562 -3.824219 7.808594 -5.042969 7.445312 -9.191406 L 22.65625 -9.191406 C 22.738281 -9.964844 22.777344 -10.65625 22.777344 -11.226562 Z M 12 -17.855469 C 14.359375 -17.855469 15.78125 -16.269531 16.148438 -13.21875 L 7.605469 -13.21875 C 8.136719 -16.433594 9.722656 -17.855469 12 -17.855469 Z M 12 -17.855469 "/></g></g></g><g fill="#ffffff" fill-opacity="1"><g transform="translate(191.00133, 57.565316)"><g><path d="M 23.957031 -21.679688 L 17.003906 -21.679688 L 12.082031 -4.921875 L 7.117188 -21.679688 L 0 -21.679688 L 8.910156 0.976562 L 8.625 1.667969 C 7.808594 3.539062 6.589844 4.191406 4.757812 4.191406 C 4.109375 4.191406 3.539062 4.191406 2.96875 4.109375 L 2.96875 8.378906 C 3.863281 8.5 4.636719 8.542969 5.734375 8.542969 C 10.453125 8.542969 12.8125 6.753906 15.292969 0.449219 Z M 23.957031 -21.679688 "/></g></g></g><g fill="#ffffff" fill-opacity="1"><g transform="translate(22.933514, 89.165672)"><g><path d="M 35.796875 -16.839844 C 35.308594 -19.808594 32.90625 -22.25 28.675781 -22.25 C 26.726562 -22.25 25.300781 -21.84375 24.039062 -20.988281 L 21.84375 -18.0625 C 20.949219 -20.460938 18.710938 -22.25 15.089844 -22.25 C 13.097656 -22.25 11.714844 -21.84375 10.414062 -20.988281 L 8.785156 -18.304688 L 8.785156 -21.679688 L 2.398438 -21.679688 L 2.398438 0 L 8.785156 0 L 8.785156 -11.269531 C 8.785156 -15.703125 9.964844 -17.855469 12.40625 -17.855469 C 14.480469 -17.855469 15.578125 -16.636719 15.863281 -14.480469 C 15.984375 -13.382812 16.027344 -12.203125 16.027344 -11.1875 L 16.027344 0 L 22.371094 0 L 22.371094 -11.269531 C 22.371094 -15.703125 23.59375 -17.855469 26.035156 -17.855469 C 28.066406 -17.855469 29.207031 -16.636719 29.449219 -14.480469 C 29.574219 -13.382812 29.613281 -12.203125 29.613281 -11.1875 L 29.613281 0 L 36 0 L 36 -12.8125 C 36 -14.5625 35.957031 -15.742188 35.796875 -16.839844 Z M 35.796875 -16.839844 "/></g></g></g><g fill="#ffffff" fill-opacity="1"><g transform="translate(59.05284, 89.165672)"><g><path d="M 23.105469 -21.679688 L 16.757812 -21.679688 L 16.757812 -10.089844 C 16.757812 -6.101562 15.050781 -3.863281 12.445312 -3.863281 C 9.964844 -3.863281 8.828125 -5.167969 8.542969 -7.363281 C 8.421875 -8.460938 8.378906 -9.640625 8.378906 -10.332031 L 8.378906 -21.679688 L 2.035156 -21.679688 L 2.035156 -8.949219 C 2.035156 -7.199219 2.074219 -6.019531 2.238281 -4.921875 C 2.726562 -1.953125 5.410156 0.570312 9.882812 0.570312 C 11.917969 0.570312 13.464844 0.164062 14.929688 -0.8125 L 16.757812 -3.703125 L 16.757812 0 L 23.105469 0 Z M 23.105469 -21.679688 "/></g></g></g><g fill="#ffffff" fill-opacity="1"><g transform="translate(82.562843, 89.165672)"><g><path d="M 10.699219 -22.25 C 5.246094 -22.25 1.667969 -19.648438 1.667969 -15.417969 C 1.667969 -11.714844 4.3125 -9.882812 8.378906 -8.867188 C 12.203125 -7.972656 13.585938 -7.117188 13.585938 -5.574219 C 13.585938 -4.191406 12.367188 -3.539062 10.820312 -3.539062 C 9.03125 -3.539062 7.566406 -4.636719 7.117188 -6.671875 L 0.8125 -6.671875 C 1.382812 -1.789062 5.246094 0.570312 10.78125 0.570312 C 15.863281 0.570312 19.972656 -1.546875 19.972656 -6.0625 C 19.972656 -10.128906 17.289062 -11.878906 13.097656 -12.933594 C 9.234375 -13.910156 8.054688 -14.726562 8.054688 -16.191406 C 8.054688 -17.328125 8.910156 -18.183594 10.292969 -18.183594 C 11.878906 -18.183594 12.8125 -17.164062 13.179688 -15.375 L 19.484375 -15.375 C 18.957031 -19.320312 15.945312 -22.25 10.699219 -22.25 Z M 10.699219 -22.25 "/></g></g></g><g fill="#ffffff" fill-opacity="1"><g transform="translate(101.31384, 89.165672)"><g><path d="M 5.574219 -30.058594 C 3.539062 -30.058594 2.195312 -28.800781 2.195312 -26.847656 C 2.195312 -24.855469 3.539062 -23.59375 5.574219 -23.59375 C 7.605469 -23.59375 8.988281 -24.855469 8.988281 -26.847656 C 8.988281 -28.800781 7.605469 -30.058594 5.574219 -30.058594 Z M 8.785156 0 L 8.785156 -21.679688 L 2.398438 -21.679688 L 2.398438 0 Z M 8.785156 0 "/></g></g></g><g fill="#ffffff" fill-opacity="1"><g transform="translate(110.506155, 89.165672)"><g><path d="M 12.164062 -22.25 C 6.019531 -22.25 1.058594 -18.101562 1.058594 -10.65625 C 1.058594 -3.292969 5.613281 0.570312 11.632812 0.570312 C 17.289062 0.570312 21.4375 -2.238281 22.292969 -7.6875 L 15.984375 -7.6875 C 15.5 -5.167969 13.953125 -3.824219 12 -3.824219 C 9.355469 -3.824219 7.605469 -6.019531 7.605469 -11.0625 C 7.605469 -15.660156 9.316406 -17.855469 12 -17.855469 C 14.113281 -17.855469 15.621094 -16.636719 16.066406 -13.667969 L 22.292969 -13.667969 C 21.964844 -18.507812 18.222656 -22.25 12.164062 -22.25 Z M 12.164062 -22.25 "/></g></g></g><g fill="#ffffff" fill-opacity="1"><g transform="translate(22.933514, 120.766027)"><g><path d="M 8.625 -29.898438 L 2.238281 -29.898438 L 2.238281 -7.28125 C 2.238281 -5.777344 2.238281 -4.71875 2.320312 -3.660156 C 2.480469 -0.8125 4.269531 0.367188 7.320312 0.367188 C 8.746094 0.367188 9.925781 0.285156 11.144531 0.164062 L 11.144531 -4.191406 C 9.234375 -4.109375 8.785156 -4.433594 8.664062 -5.410156 C 8.625 -5.980469 8.625 -6.46875 8.625 -7.402344 Z M 8.625 -29.898438 "/></g></g></g><g fill="#ffffff" fill-opacity="1"><g transform="translate(32.735966, 120.766027)"><g><path d="M 15.050781 0 L 21.273438 0 C 20.949219 -2.398438 20.867188 -3.863281 20.867188 -5.492188 L 20.867188 -12.082031 C 20.867188 -13.34375 20.828125 -14.5625 20.746094 -15.578125 C 20.421875 -19.445312 18.101562 -22.25 11.675781 -22.25 C 6.386719 -22.25 2.195312 -19.445312 2.074219 -14.480469 L 8.175781 -14.480469 C 8.339844 -16.636719 9.4375 -17.855469 11.429688 -17.855469 C 13.34375 -17.855469 14.320312 -16.800781 14.441406 -15.5 C 14.523438 -14.765625 14.523438 -14.195312 14.523438 -13.625 L 14.523438 -13.261719 L 13.140625 -13.261719 C 5.492188 -13.261719 1.300781 -10.496094 1.300781 -5.777344 C 1.300781 -1.667969 4.597656 0.570312 8.257812 0.570312 C 10.25 0.570312 12.082031 0.121094 13.625 -0.855469 L 14.601562 -3.171875 Z M 10.78125 -3.824219 C 9.03125 -3.824219 7.851562 -4.679688 7.851562 -6.304688 C 7.851562 -8.828125 10.574219 -9.804688 14.523438 -9.476562 L 14.523438 -7.890625 C 14.523438 -5.207031 12.691406 -3.824219 10.78125 -3.824219 Z M 10.78125 -3.824219 "/></g></g></g><g fill="#ffffff" fill-opacity="1"><g transform="translate(54.008835, 120.766027)"><g><path d="M 15.984375 -22.25 C 13.789062 -22.25 11.632812 -21.761719 10.414062 -20.828125 L 8.785156 -18.425781 L 8.785156 -29.898438 L 2.398438 -29.898438 L 2.398438 0 L 8.785156 0 L 8.785156 -2.847656 L 10.210938 -0.570312 C 11.308594 0.121094 13.464844 0.570312 15.253906 0.570312 C 20.828125 0.570312 25.585938 -3.5 25.585938 -11.308594 C 25.585938 -17.695312 21.964844 -22.25 15.984375 -22.25 Z M 13.75 -3.824219 C 11.308594 -3.824219 8.785156 -5.449219 8.785156 -10.128906 L 8.785156 -11.105469 C 8.785156 -16.066406 11.023438 -17.855469 13.953125 -17.855469 C 16.960938 -17.855469 19.035156 -15.171875 19.035156 -10.902344 C 19.035156 -6.183594 16.839844 -3.824219 13.75 -3.824219 Z M 13.75 -3.824219 "/></g></g></g></svg>